<svg xmlns="http://www.w3.org/2000/svg" xmlns:xlink="http://www.w3.org/1999/xlink" width="1064.526" height="349.606" viewBox="0 0 1064.526 349.606">
  <defs>
    <radialGradient id="radial-gradient" cx="0.912" cy="0.294" r="0.958" gradientTransform="matrix(-0.842, 0.539, 0.522, 0.816, 1.527, -0.438)" gradientUnits="objectBoundingBox">
      <stop offset="0" stop-color="#fff422"/>
      <stop offset="0.694" stop-color="#f9dd13"/>
      <stop offset="1" stop-color="#f1c000"/>
    </radialGradient>
    <radialGradient id="radial-gradient-2" cx="0.833" cy="0.179" r="0.927" gradientTransform="matrix(-0.655, 0.753, 0.747, 0.655, 1.246, -0.566)" gradientUnits="objectBoundingBox">
      <stop offset="0" stop-color="#fff422"/>
      <stop offset="0.747" stop-color="#f9dd13"/>
      <stop offset="1" stop-color="#f1c000"/>
    </radialGradient>
    <radialGradient id="radial-gradient-3" cx="0.32" cy="-1.065" r="3.849" gradientTransform="matrix(0.144, 0.549, -0.093, 0.829, 0.174, -0.358)" gradientUnits="objectBoundingBox">
      <stop offset="0" stop-color="#fff422"/>
      <stop offset="1" stop-color="#f1c000"/>
    </radialGradient>
  </defs>
  <g id="Agrupar_5" data-name="Agrupar 5" transform="translate(-427 -366)">
    <g id="Agrupar_2" data-name="Agrupar 2">
      <g id="Agrupar_1" data-name="Agrupar 1" transform="translate(2.697 287.303)">
        <path id="Caminho_1" data-name="Caminho 1" d="M599.141,78.7C502.614,78.7,424.3,157.215,424.3,253.465S502.614,428.3,599.141,428.3,773.91,349.785,773.91,253.466,695.6,78.7,599.141,78.7ZM718.3,335.986c-37.948,4-79.9,4.9-119.157,4.76-39.259.138-81.278-.828-119.157-4.76-10.971-1.173-16.836-3.864-18.009-15.663-2.207-21.734-2.276-44.089-2.276-66.789s.138-45.123,2.276-66.788c1.173-11.8,7.107-14.559,18.009-15.663,37.948-4,79.9-4.9,119.157-4.76,39.259-.138,81.278.828,119.157,4.76,10.971,1.173,16.835,3.864,18.008,15.663,2.208,21.734,2.277,44.089,2.277,66.788s-.138,45.124-2.277,66.789C735.133,332.122,729.269,334.813,718.3,335.986Z" fill="url(#radial-gradient)"/>
        <path id="Caminho_2" data-name="Caminho 2" d="M599.141,182.744a70.757,70.757,0,1,0,71.066,70.79A70.907,70.907,0,0,0,599.141,182.744Z" fill="url(#radial-gradient-2)"/>
      </g>
    </g>
    <path id="Caminho_3" data-name="Caminho 3" d="M81.8-69.349c0-16.333-13.388-25.7-34.808-25.7H19.546a2.611,2.611,0,0,0-2.945,2.41L4.016-2.811A2.3,2.3,0,0,0,6.56,0H27.713a2.713,2.713,0,0,0,2.945-2.544l4.418-31.863,13.789,32.4A3.238,3.238,0,0,0,52.078,0H76.846c2.008,0,2.945-1.339,2.008-3.213L59.576-40.029C73.5-44.581,81.8-55.291,81.8-69.349ZM41.368-75.373c8.3,0,12.584,3.882,12.584,10.442,0,8.167-5.221,13.923-16.065,13.923h-.4l3.347-24.366Zm106.165-.8,2.008-16.065c.268-1.874-.669-2.811-2.41-2.811H96.66a2.607,2.607,0,0,0-2.811,2.544L82.87-2.811C82.6-.937,83.54,0,85.28,0h50.472a2.607,2.607,0,0,0,2.811-2.544l2.008-16.065c.268-1.874-.669-2.811-2.41-2.811h-25.3l1.874-15.931h20.751A2.607,2.607,0,0,0,138.3-39.9l2.008-16.2c.268-1.874-.8-2.811-2.544-2.811H117.411l1.74-14.727h25.571A2.607,2.607,0,0,0,147.533-76.176ZM248.477-92.911,230.135-38.557l-5.757-53.953a2.53,2.53,0,0,0-2.811-2.544H205.1a3.176,3.176,0,0,0-3.079,2.142L182.609-41.368l-3.882-51.141a2.5,2.5,0,0,0-2.678-2.544H152.62a2.3,2.3,0,0,0-2.544,2.811L162.661-2.41A2.611,2.611,0,0,0,165.606,0h18.743a3.176,3.176,0,0,0,3.079-2.142l19.546-50.2,5.757,49.8A2.53,2.53,0,0,0,215.543,0h19.011a2.908,2.908,0,0,0,3.079-2.008l37.218-89.966c.8-1.874,0-3.079-2.008-3.079H251.556A3.016,3.016,0,0,0,248.477-92.911ZM312.6,0h23.964c1.874,0,2.678-1.2,2.276-2.945L319.7-92.777a2.8,2.8,0,0,0-2.945-2.41H298.145a3.006,3.006,0,0,0-3.079,2.008l-41.5,90.1c-.8,1.874,0,3.079,2.008,3.079h22.759a3.016,3.016,0,0,0,3.079-2.142c1.339-3.615,2.678-7.229,4.15-10.844h23.027q.4,5.221,1.2,10.442A2.53,2.53,0,0,0,312.6,0ZM292.522-31.461C296-40.565,299.484-49.8,303.1-58.906l3.213,27.445ZM420.643-69.349c0-16.333-13.388-25.7-34.808-25.7H358.39a2.611,2.611,0,0,0-2.945,2.41L342.86-2.811A2.3,2.3,0,0,0,345.4,0h21.153A2.713,2.713,0,0,0,369.5-2.544l4.418-31.863,13.789,32.4A3.238,3.238,0,0,0,390.922,0H415.69c2.008,0,2.945-1.339,2.008-3.213L398.42-40.029C412.343-44.581,420.643-55.291,420.643-69.349Zm-40.431-6.024c8.3,0,12.584,3.882,12.584,10.442,0,8.167-5.221,13.923-16.065,13.923h-.4l3.347-24.366ZM424.258,0h22.224c36.147,0,58.906-23.161,58.906-53.953,0-24.232-16.333-41.1-45.652-41.1H437.11a2.713,2.713,0,0,0-2.945,2.544l-12.451,89.7A2.3,2.3,0,0,0,424.258,0Zm26.909-21.554L458.531-73.5a5.616,5.616,0,0,0,2.008.134c11.647.8,17.136,8.7,17.136,20.751,0,17.27-8.434,30.926-26.106,30.926ZM530.423,1.339c23.964,0,39.9-14.727,39.9-34.273,0-12.183-7.229-18.743-18.341-24.5-6.292-3.347-10.844-5.623-10.844-10.442,0-4.686,4.284-8.033,10.844-8.033a50.036,50.036,0,0,1,15.4,2.811c1.74.535,2.945-.134,3.213-2.008l2.142-15.4a2.579,2.579,0,0,0-1.874-3.213,74.648,74.648,0,0,0-19.814-2.678c-19.814,0-39.092,11.781-39.092,32.8,0,13.254,9.1,20.216,18.877,24.633,7.229,3.347,10.844,5.757,10.844,10.175,0,5.221-4.953,8.3-12.049,8.3A42.681,42.681,0,0,1,510.073-25.7c-1.74-.937-3.079-.268-3.347,1.607l-2.544,17.27a2.9,2.9,0,0,0,1.74,3.347C512.617-.268,521.988,1.339,530.423,1.339Z" transform="translate(918.74 588.392)" fill="url(#radial-gradient-3)"/>
  </g>
</svg>
